<?xml version="1.0" encoding="UTF-8" standalone="no"?>
<!-- Created with Inkscape (http://www.inkscape.org/) -->

<svg
   width="256mm"
   height="256mm"
   viewBox="0 0 256 256"
   version="1.1"
   id="svg1"
   inkscape:version="1.4.2 (f4327f4, 2025-05-13)"
   sodipodi:docname="app-enactingsvg.svg"
   xml:space="preserve"
   xmlns:inkscape="http://www.inkscape.org/namespaces/inkscape"
   xmlns:sodipodi="http://sodipodi.sourceforge.net/DTD/sodipodi-0.dtd"
   xmlns:xlink="http://www.w3.org/1999/xlink"
   xmlns="http://www.w3.org/2000/svg"
   xmlns:svg="http://www.w3.org/2000/svg"><sodipodi:namedview
     id="namedview1"
     pagecolor="#ffffff"
     bordercolor="#666666"
     borderopacity="1.0"
     inkscape:showpageshadow="2"
     inkscape:pageopacity="0.0"
     inkscape:pagecheckerboard="0"
     inkscape:deskcolor="#d1d1d1"
     inkscape:document-units="mm"
     inkscape:zoom="0.37104026"
     inkscape:cx="261.42715"
     inkscape:cy="898.82429"
     inkscape:window-width="1920"
     inkscape:window-height="1051"
     inkscape:window-x="-9"
     inkscape:window-y="-9"
     inkscape:window-maximized="1"
     inkscape:current-layer="layer1" /><defs
     id="defs1"><clipPath
       clipPathUnits="userSpaceOnUse"
       id="clipPath2"><rect
         style="fill:#000000;stroke:none;stroke-width:0.33877;-inkscape-stroke:none"
         id="rect3"
         width="226.40456"
         height="243.16446"
         x="17.114046"
         y="12.835534" /></clipPath><linearGradient
       inkscape:collect="always"
       xlink:href="#linearGradient231"
       id="linearGradient347"
       gradientUnits="userSpaceOnUse"
       gradientTransform="matrix(0.53333333,0,0,0.53333333,-3134.9333,-24.177322)"
       x1="5130"
       y1="285.75"
       x2="5548.7734"
       y2="285.75" /><linearGradient
       id="linearGradient231"
       inkscape:collect="always"><stop
         style="stop-color:#ffffff;stop-opacity:1;"
         offset="0.75"
         id="stop231" /><stop
         style="stop-color:#ffffff;stop-opacity:0;"
         offset="1"
         id="stop232" /></linearGradient><linearGradient
       inkscape:collect="always"
       xlink:href="#linearGradient285"
       id="linearGradient346"
       gradientUnits="userSpaceOnUse"
       gradientTransform="matrix(-0.14111111,0,0,0.14111111,3134.8603,-28.975099)"
       x1="21608.787"
       y1="715.60779"
       x2="23228.457"
       y2="715.60779" /><linearGradient
       id="linearGradient285"
       inkscape:collect="always"><stop
         style="stop-color:#ffffff;stop-opacity:0;"
         offset="0"
         id="stop285" /><stop
         style="stop-color:#ff9bbb;stop-opacity:1;"
         offset="0.2"
         id="stop286" /></linearGradient><marker
       style="overflow:visible"
       id="marker133-1"
       refX="0"
       refY="0"
       orient="auto-start-reverse"
       inkscape:stockid="Concave triangle arrow"
       markerWidth="1"
       markerHeight="1"
       viewBox="0 0 1 1"
       inkscape:isstock="true"
       inkscape:collect="always"
       preserveAspectRatio="xMidYMid"><path
         transform="scale(0.7)"
         d="M -2,-4 9,0 -2,4 c 2,-2.33 2,-5.66 0,-8 z"
         style="fill:context-stroke;fill-rule:evenodd;stroke:none"
         id="path133-2" /></marker><linearGradient
       inkscape:collect="always"
       xlink:href="#linearGradient287"
       id="linearGradient345"
       gradientUnits="userSpaceOnUse"
       gradientTransform="matrix(-0.14111111,0,0,0.14111111,3134.8603,-27.531568)"
       x1="21608.787"
       y1="792.74658"
       x2="23228.457"
       y2="792.74658" /><linearGradient
       id="linearGradient287"
       inkscape:collect="always"><stop
         style="stop-color:#ffffff;stop-opacity:0;"
         offset="0"
         id="stop287" /><stop
         style="stop-color:#e0aeff;stop-opacity:1;"
         offset="0.2"
         id="stop288" /></linearGradient><linearGradient
       inkscape:collect="always"
       xlink:href="#linearGradient289"
       id="linearGradient344"
       gradientUnits="userSpaceOnUse"
       gradientTransform="matrix(-0.14111111,0,0,0.14111111,3134.8603,-26.259764)"
       x1="21608.787"
       y1="870.38477"
       x2="23228.457"
       y2="870.38477" /><linearGradient
       id="linearGradient289"
       inkscape:collect="always"><stop
         style="stop-color:#ffffff;stop-opacity:0;"
         offset="0"
         id="stop289" /><stop
         style="stop-color:#db88ff;stop-opacity:1;"
         offset="0.2"
         id="stop290" /></linearGradient><linearGradient
       inkscape:collect="always"
       xlink:href="#linearGradient291"
       id="linearGradient343"
       gradientUnits="userSpaceOnUse"
       gradientTransform="matrix(-0.14111111,0,0,0.14111111,3134.8603,-25.023989)"
       x1="21608.787"
       y1="947.52301"
       x2="23228.457"
       y2="947.52301" /><linearGradient
       id="linearGradient291"
       inkscape:collect="always"><stop
         style="stop-color:#ffffff;stop-opacity:0;"
         offset="0"
         id="stop291" /><stop
         style="stop-color:#b0a0ff;stop-opacity:1;"
         offset="0.2"
         id="stop292" /></linearGradient><linearGradient
       inkscape:collect="always"
       xlink:href="#linearGradient293"
       id="linearGradient342"
       gradientUnits="userSpaceOnUse"
       gradientTransform="matrix(-0.14111111,0,0,0.14111111,3134.8603,-24.236287)"
       x1="21609.184"
       y1="1080.4178"
       x2="23228.457"
       y2="1080.4178" /><linearGradient
       id="linearGradient293"
       inkscape:collect="always"><stop
         style="stop-color:#ffffff;stop-opacity:0;"
         offset="0"
         id="stop293" /><stop
         style="stop-color:#f8bdff;stop-opacity:1;"
         offset="0.2"
         id="stop294" /></linearGradient><linearGradient
       inkscape:collect="always"
       xlink:href="#linearGradient291"
       id="linearGradient341"
       gradientUnits="userSpaceOnUse"
       gradientTransform="matrix(-0.14111111,0,0,0.14111111,3134.8603,-23.048431)"
       x1="21609.184"
       y1="1212.6879"
       x2="23228.457"
       y2="1212.6879" /><linearGradient
       inkscape:collect="always"
       xlink:href="#linearGradient289"
       id="linearGradient340"
       gradientUnits="userSpaceOnUse"
       gradientTransform="matrix(-0.14111111,0,0,0.14111111,3134.8603,-22.080223)"
       x1="21609.184"
       y1="1289.6497"
       x2="23228.457"
       y2="1289.6497" /><linearGradient
       inkscape:collect="always"
       xlink:href="#linearGradient287"
       id="linearGradient339"
       gradientUnits="userSpaceOnUse"
       gradientTransform="matrix(-0.14111111,0,0,0.14111111,3134.8603,-20.912292)"
       x1="21609.184"
       y1="1367.4926"
       x2="23228.457"
       y2="1367.4926" /><linearGradient
       inkscape:collect="always"
       xlink:href="#linearGradient285"
       id="linearGradient338"
       gradientUnits="userSpaceOnUse"
       gradientTransform="matrix(-0.14111111,0,0,0.14111111,3134.8603,-19.943988)"
       x1="21609.184"
       y1="1444.6193"
       x2="23228.457"
       y2="1444.6193" /><clipPath
       clipPathUnits="userSpaceOnUse"
       id="clipPath4"><rect
         style="fill:#000000;stroke:none;stroke-width:0.33877;-inkscape-stroke:none"
         id="rect5"
         width="256"
         height="256"
         x="0"
         y="0"
         rx="0"
         ry="0" /></clipPath></defs><g
     inkscape:label="Layer 1"
     inkscape:groupmode="layer"
     id="layer1"><rect
       style="fill:#000000;stroke:none;stroke-width:0.33877;-inkscape-stroke:none"
       id="rect1"
       width="256"
       height="256"
       x="0"
       y="0"
       rx="0"
       ry="0" /><g
       id="g3"
       clip-path="url(#clipPath4)"
       transform="matrix(-1,0,0,1,256,0)"><rect
         style="font-variation-settings:normal;fill:url(#linearGradient347);stroke:none;stroke-width:0.514632;stroke-linecap:butt;stroke-linejoin:miter;stroke-miterlimit:4;stroke-dasharray:none;stroke-dashoffset:0;stroke-opacity:1"
         id="rect231-6"
         width="223.34583"
         height="19.860743"
         x="-398.93329"
         y="118.2923"
         transform="scale(-1,1)" /><path
         d="m 173.72512,123.41462 3.72468,-0.38974 a 49.59334,49.59334 0 0 0 -0.0743,-0.81798 49.59334,49.59334 0 0 0 -0.45073,-2.96156 49.59334,49.59334 0 0 0 -0.62888,-2.92883 49.59334,49.59334 0 0 0 -0.80436,-2.88592 49.59334,49.59334 0 0 0 -0.97708,-2.83174 49.59334,49.59334 0 0 0 -0.95831,-2.31358 l -3.43719,1.50615 a 45.850463,45.850463 0 0 1 0.65551,1.51468 45.850463,45.850463 0 0 1 0.97571,2.71012 45.850463,45.850463 0 0 1 0.8037,2.766 45.850463,45.850463 0 0 1 0.62821,2.81097 45.850463,45.850463 0 0 1 0.45073,2.84503 45.850463,45.850463 0 0 1 0.0923,0.9764 z"
         style="opacity:0.5;fill:#ffffff;fill-opacity:1;stroke:none;stroke-width:0.659259;stroke-linecap:round"
         id="path197-9-47" /><path
         d="m 131.68392,173.72551 0.28928,3.71752 a 49.59334,49.59334 0 0 0 4.78247,-0.41835 49.59334,49.59334 0 0 0 8.35012,-2.23726 49.59334,49.59334 0 0 0 7.83465,-3.65347 49.59334,49.59334 0 0 0 7.08144,-4.95829 49.59334,49.59334 0 0 0 6.00249,-6.00282 l -2.85901,-2.41407 a 45.850463,45.850463 0 0 1 -5.54939,5.54937 45.850463,45.850463 0 0 1 -6.54691,4.58421 45.850463,45.850463 0 0 1 -7.24355,3.37787 45.850463,45.850463 0 0 1 -7.71987,2.06861 45.850463,45.850463 0 0 1 -4.42172,0.38668 z"
         style="opacity:0.5;fill:#c362ff;fill-opacity:1;stroke:none;stroke-width:0.659259;stroke-linecap:round"
         id="path195-38-0" /><path
         d="m 87.555036,149.22095 -3.313111,1.71703 a 49.59334,49.59334 0 0 0 0.952895,2.0434 49.59334,49.59334 0 0 0 4.958293,7.08142 49.59334,49.59334 0 0 0 6.112859,6.11286 49.59334,49.59334 0 0 0 5.027438,3.52026 l 2.02638,-3.1329 a 45.850463,45.850463 0 0 1 -4.648244,-3.25488 45.850463,45.850463 0 0 1 -5.651245,-5.65123 45.850463,45.850463 0 0 1 -4.584229,-6.54689 45.850463,45.850463 0 0 1 -0.881036,-1.88907 z"
         style="opacity:0.5;fill:#ffffff;fill-opacity:1;stroke:none;stroke-width:0.659259;stroke-linecap:round"
         id="path193-19-0" /><path
         d="m 82.410106,129.5193 a 45.850463,45.850463 0 0 1 -0.116887,-1.33445 45.850463,45.850463 0 0 1 0.696706,-7.96174 45.850463,45.850463 0 0 1 2.068626,-7.7202 45.850463,45.850463 0 0 1 3.377521,-7.24324 45.850463,45.850463 0 0 1 4.584229,-6.546882 45.850463,45.850463 0 0 1 5.651245,-5.651577 45.850463,45.850463 0 0 1 6.546844,-4.584217 45.850463,45.850463 0 0 1 7.24362,-3.37752 45.850463,45.850463 0 0 1 0.18532,-0.04978 l -1.26532,-3.521285 a 49.59334,49.59334 0 0 0 -0.20029,0.05386 49.59334,49.59334 0 0 0 -7.8347,3.653473 49.59334,49.59334 0 0 0 -7.081048,4.95828 49.59334,49.59334 0 0 0 -6.112859,6.112859 49.59334,49.59334 0 0 0 -4.958293,7.081419 49.59334,49.59334 0 0 0 -3.653486,7.83466 49.59334,49.59334 0 0 0 -2.237595,8.35011 49.59334,49.59334 0 0 0 -0.753271,8.61176 49.59334,49.59334 0 0 0 0.126447,1.44347 z"
         style="fill:#8067ff;fill-opacity:1;stroke:none;stroke-width:0.659259;stroke-linecap:round"
         id="path192-6-3-6" /><path
         d="m 134.44484,79.002288 -0.47494,3.70628 a 45.850463,45.850463 0 0 1 2.76533,0.437776 45.850463,45.850463 0 0 1 2.81095,0.628558 45.850463,45.850463 0 0 1 2.76599,0.803671 45.850463,45.850463 0 0 1 2.71015,0.975712 45.850463,45.850463 0 0 1 2.6437,1.14367 45.850463,45.850463 0 0 1 2.56637,1.307879 45.850463,45.850463 0 0 1 2.47948,1.466294 45.850463,45.850463 0 0 1 2.38204,1.618918 45.850463,45.850463 0 0 1 1.45333,1.127321 l 2.32923,-2.949628 a 49.59334,49.59334 0 0 0 -0.14747,-0.122981 49.59334,49.59334 0 0 0 -2.41308,-1.775294 49.59334,49.59334 0 0 0 -2.51562,-1.626758 49.59334,49.59334 0 0 0 -2.60928,-1.471745 49.59334,49.59334 0 0 0 -2.6934,-1.311287 49.59334,49.59334 0 0 0 -2.76771,-1.146395 49.59334,49.59334 0 0 0 -2.83212,-0.977418 49.59334,49.59334 0 0 0 -2.8855,-0.80435 49.59334,49.59334 0 0 0 -2.92923,-0.628558 49.59334,49.59334 0 0 0 -2.63822,-0.401661 z"
         style="fill:#cd5aff;fill-opacity:1;stroke:none;stroke-width:0.659259;stroke-linecap:round"
         id="path179-5-1" /><path
         d="m 162.82669,109.72057 4.15908,-2.14937 a 44.921417,44.921417 0 0 0 -0.52365,-1.02749 44.921417,44.921417 0 0 0 -1.43666,-2.42907 44.921417,44.921417 0 0 0 -1.58625,-2.33401 44.921417,44.921417 0 0 0 -1.72963,-2.229757 44.921417,44.921417 0 0 0 -1.86623,-2.117003 44.921417,44.921417 0 0 0 -1.99538,-1.995383 44.921417,44.921417 0 0 0 -2.11669,-1.866245 44.921417,44.921417 0 0 0 -2.23008,-1.729646 44.921417,44.921417 0 0 0 -2.33398,-1.586219 44.921417,44.921417 0 0 0 -1.0715,-0.633668 l -2.39634,4.017668 a 40.236103,40.236103 0 0 1 1.75179,1.089497 40.236103,40.236103 0 0 1 2.14015,1.533409 40.236103,40.236103 0 0 1 2.03527,1.670371 40.236103,40.236103 0 0 1 1.92175,1.799817 40.236103,40.236103 0 0 1 1.79984,1.921789 40.236103,40.236103 0 0 1 1.67037,2.03523 40.236103,40.236103 0 0 1 1.53377,2.1405 40.236103,40.236103 0 0 1 1.3903,2.23591 40.236103,40.236103 0 0 1 0.88407,1.65367 z"
         style="opacity:0.5;fill:#ffffff;fill-opacity:1;stroke:none;stroke-width:0.645902;stroke-linecap:round"
         id="path263-73-9" /><path
         d="m 160.94748,151.33215 3.76048,2.65356 a 44.921417,44.921417 0 0 0 2.3388,-3.34003 44.921417,44.921417 0 0 0 3.30934,-7.09676 44.921417,44.921417 0 0 0 2.0267,-7.56347 44.921417,44.921417 0 0 0 0.6824,-7.8006 44.921417,44.921417 0 0 0 -0.006,-0.1315 l -4.68504,0.0136 a 40.236103,40.236103 0 0 1 0.006,0.11792 40.236103,40.236103 0 0 1 -0.77299,7.84965 40.236103,40.236103 0 0 1 -2.28974,7.54815 40.236103,40.236103 0 0 1 -3.71822,6.95605 40.236103,40.236103 0 0 1 -0.65135,0.79344 z"
         style="opacity:0.5;fill:#ffffff;fill-opacity:1;stroke:none;stroke-width:0.645902;stroke-linecap:round"
         id="path261-1-1" /><path
         d="m 126.45922,167.55711 -0.19693,4.68677 a 44.921417,44.921417 0 0 0 1.8816,0.16456 44.921417,44.921417 0 0 0 7.8003,-0.6824 44.921417,44.921417 0 0 0 5.80043,-1.55418 l -1.44279,-4.52869 a 40.236103,40.236103 0 0 1 -4.30827,1.30685 40.236103,40.236103 0 0 1 -7.84967,0.77301 40.236103,40.236103 0 0 1 -1.68467,-0.16592 z"
         style="fill:#ff4b85;fill-opacity:1;stroke:none;stroke-width:0.645902;stroke-linecap:round"
         id="path259-0-0" /><path
         d="m 101.23171,156.9149 -3.172757,3.42521 a 44.921417,44.921417 0 0 0 1.558627,1.55863 44.921417,44.921417 0 0 0 6.4144,4.49155 44.921417,44.921417 0 0 0 7.09674,3.30903 44.921417,44.921417 0 0 0 5.42161,1.45268 l 1.03023,-4.52426 a 40.236103,40.236103 0 0 1 -6.4856,-1.96744 40.236103,40.236103 0 0 1 -6.95638,-3.7182 40.236103,40.236103 0 0 1 -4.90687,-4.0272 z"
         style="opacity:0.5;fill:#ffffff;fill-opacity:1;stroke:none;stroke-width:0.645902;stroke-linecap:round"
         id="path257-6-4" /><path
         d="m 96.866945,104.3756 -3.754017,-2.83617 a 44.921417,44.921417 0 0 0 -3.174469,4.53346 44.921417,44.921417 0 0 0 -3.309354,7.09674 44.921417,44.921417 0 0 0 -2.026366,7.56349 44.921417,44.921417 0 0 0 -0.556021,6.35065 l 4.686416,0.15159 a 40.236103,40.236103 0 0 1 0.645283,-6.5513 40.236103,40.236103 0 0 1 2.289676,-7.54816 40.236103,40.236103 0 0 1 3.718225,-6.95604 40.236103,40.236103 0 0 1 1.480627,-1.80426 z"
         style="opacity:0.5;fill:#ffffff;fill-opacity:1;stroke:none;stroke-width:0.645902;stroke-linecap:round"
         id="path254-2-0" /><path
         d="m 130.10729,84.022922 a 44.921417,44.921417 0 0 0 -1.9634,-0.06164 44.921417,44.921417 0 0 0 -7.80056,0.682386 44.921417,44.921417 0 0 0 -7.56349,2.026717 44.921417,44.921417 0 0 0 -2.25296,1.050662 l 1.80222,4.211168 a 40.236103,40.236103 0 0 1 0.41698,-0.222803 40.236103,40.236103 0 0 1 7.5482,-2.289722 40.236103,40.236103 0 0 1 7.84961,-0.773352 40.236103,40.236103 0 0 1 1.75864,0.05755 z"
         style="opacity:0.5;fill:#ffffff;fill-opacity:1;stroke:none;stroke-width:0.645902;stroke-linecap:round"
         id="path241-4-1" /><path
         d="m 157.82581,119.33768 6.31044,-1.86728 a 39.00558,39.00558 0 0 0 -0.63434,-1.99878 39.00558,39.00558 0 0 0 -0.97709,-2.47778 39.00558,39.00558 0 0 0 -1.14401,-2.40521 39.00558,39.00558 0 0 0 -1.30547,-2.32176 39.00558,39.00558 0 0 0 -1.46053,-2.22704 39.00558,39.00558 0 0 0 -1.60938,-2.12211 39.00558,39.00558 0 0 0 -1.7504,-2.00729 39.00558,39.00558 0 0 0 -1.59679,-1.59678 l -4.545,4.76648 a 32.421174,32.421174 0 0 1 1.40151,1.40158 32.421174,32.421174 0 0 1 1.5815,1.83762 32.421174,32.421174 0 0 1 1.4397,1.95075 32.421174,32.421174 0 0 1 1.28983,2.05295 32.421174,32.421174 0 0 1 1.13307,2.14358 32.421174,32.421174 0 0 1 0.96965,2.22227 32.421174,32.421174 0 0 1 0.8006,2.28835 32.421174,32.421174 0 0 1 0.0967,0.36045 z"
         style="opacity:0.5;fill:#ffffff;fill-opacity:1;stroke:none;stroke-width:0.639097;stroke-linecap:round"
         id="path303-9-7" /><path
         d="m 143.25656,155.60191 3.22082,5.72755 a 39.00558,39.00558 0 0 0 2.63889,-1.41043 39.00558,39.00558 0 0 0 5.91085,-4.85096 39.00558,39.00558 0 0 0 4.85097,-5.9105 39.00558,39.00558 0 0 0 0.33629,-0.62924 l -5.65738,-3.63269 a 32.421174,32.421174 0 0 1 -1.76305,2.80585 32.421174,32.421174 0 0 1 -5.13373,5.1334 32.421174,32.421174 0 0 1 -4.40366,2.76702 z"
         style="opacity:0.5;fill:#ffffff;fill-opacity:1;stroke:none;stroke-width:0.639097;stroke-linecap:round"
         id="path301-8-2" /><path
         d="m 96.221336,128.46829 -6.576512,0.27118 a 39.00558,39.00558 0 0 0 0.591752,6.00827 39.00558,39.00558 0 0 0 2.219531,7.31717 39.00558,39.00558 0 0 0 3.604436,6.74379 39.00558,39.00558 0 0 0 4.850957,5.9105 39.00558,39.00558 0 0 0 4.19996,3.44667 l 3.92259,-5.20528 a 32.421174,32.421174 0 0 1 -0.75564,-0.47457 32.421174,32.421174 0 0 1 -5.13372,-5.13338 32.421174,32.421174 0 0 1 -3.862678,-6.14728 32.421174,32.421174 0 0 1 -2.397724,-6.85282 32.421174,32.421174 0 0 1 -0.662952,-5.88425 z"
         style="fill:#ef64ff;fill-opacity:1;stroke:none;stroke-width:0.639097;stroke-linecap:round"
         id="path298-0-9" /><path
         d="m 114.33062,92.508289 a 39.00558,39.00558 0 0 0 -1.11369,0.337957 39.00558,39.00558 0 0 0 -6.74344,3.60442 39.00558,39.00558 0 0 0 -4.28783,3.518557 l 4.40399,4.905487 a 32.421174,32.421174 0 0 1 1.33988,-1.33991 32.421174,32.421174 0 0 1 6.14726,-3.862652 32.421174,32.421174 0 0 1 2.62531,-0.918815 z"
         style="opacity:0.5;fill:#ffffff;fill-opacity:1;stroke:none;stroke-width:0.639097;stroke-linecap:round"
         id="path289-4-4-0" /><g
         id="g71-8-9-6"
         transform="matrix(0.65925992,0,0,0.65925992,-76.77974,-62.234929)"
         style="opacity:0.5"><path
           style="opacity:1;fill:none;stroke:#b2e8ff;stroke-width:1.265;stroke-linecap:butt;stroke-linejoin:miter;stroke-dasharray:none;stroke-opacity:1"
           d="m 341.70966,322.37098 -41.69354,-90.48389 -17.74193,107.87098 55.53226,-112.6613"
           id="path304-5-3" /><path
           style="opacity:1;fill:none;stroke:#b2e8ff;stroke-width:1.265;stroke-linecap:butt;stroke-linejoin:miter;stroke-dasharray:none;stroke-opacity:1"
           d="M 377.54837,272.69355 273.04838,313.5 284.22581,250.33871"
           id="path305-4-5" /><path
           style="opacity:1;fill:none;stroke:#b2e8ff;stroke-width:1.265;stroke-linecap:butt;stroke-linejoin:miter;stroke-dasharray:none;stroke-opacity:1"
           d="m 259.20967,262.2258 58.37097,84.98386 32.29033,-81.7903 -97.04839,16.32257 92.96775,-39.91935"
           id="path306-7-6" /><path
           style="opacity:1;fill:none;stroke:#b2e8ff;stroke-width:1.265;stroke-linecap:butt;stroke-linejoin:miter;stroke-dasharray:none;stroke-opacity:1"
           d="M 363.88709,313.5 259.74193,244.48387 339.04838,350.58064"
           id="path307-1-1" /><path
           style="opacity:1;fill:none;stroke:#b2e8ff;stroke-width:1.265;stroke-linecap:butt;stroke-linejoin:miter;stroke-dasharray:none;stroke-opacity:1"
           d="M 369.38709,298.24193 307.46774,230.46774"
           id="path308-1-84" /></g><path
         style="font-variation-settings:normal;opacity:0.5;fill:url(#linearGradient346);stroke:none;stroke-width:0.0199561;stroke-linecap:butt;stroke-linejoin:miter;stroke-miterlimit:4;stroke-dasharray:none;stroke-dashoffset:0;stroke-opacity:1;marker-end:url(#marker133-1)"
         d="m 85.564203,114.41699 v -0.80561 l -10.7264,-0.004 c -6.1241,-0.002 -11.3257,-0.0902 -12.1233,-0.20502 -5.4937,-0.79079 -9.3164,-5.24515 -22.941001,-26.731778 -11.7884,-18.590896 -16.3992,-25.624768 -20.996,-32.029579 -5.3697,-7.481653 -8.6788,-11.491279 -12.7661993,-15.469375 -5.67009999,-5.518608 -10.7238,-8.134539 -18.0897007,-9.364054 -5.385,-0.898841 -3.5648,-0.873683 -68.6417,-0.948525 l -62.213202,-0.07155 v 9.584099 9.584106 l 59.120002,0.0021 c 36.545,0.0011 60.7965,0.0785 63.5103,0.202512 16.3659007,0.74783 22.6049007,3.477003 33.9308,14.84248 6.4359,6.458448 10.3798,11.070326 24.1647,28.257899 9.783201,12.197955 12.518201,15.418355 15.764401,18.561865 2.6216,2.53886 4.65,3.9959 6.6445,4.77304 l 1.3158,0.51267 12.0235,0.0573 12.0235,0.0572 z"
         id="path330" /><path
         style="font-variation-settings:normal;fill:url(#linearGradient345);stroke:none;stroke-width:0.0199561;stroke-linecap:butt;stroke-linejoin:miter;stroke-miterlimit:4;stroke-dasharray:none;stroke-dashoffset:0;stroke-opacity:1;marker-end:url(#marker133-1)"
         d="m 85.564203,118.07373 v -0.99496 l -11.7242,-0.0803 c -10.1342,-0.0694 -11.8728,-0.12476 -12.8202,-0.40794 -2.7812,-0.83126 -5.2671,-2.61609 -8.9838,-6.45011 -3.0918,-3.1894 -5.4599,-6.01732 -14.768901,-17.635884 -13.518,-16.87185 -17.494,-21.51497 -23.9317,-27.947162 -4.5756993,-4.571792 -6.4491993,-6.180534 -9.7649993,-8.38511 -5.0696,-3.370597 -10.198,-5.086922 -17.5871007,-5.88584 -5.328,-0.576064 -16.0307,-0.677232 -72.1914,-0.682362 l -56.725202,-0.0053 v 9.673072 9.673067 l 63.310802,0.06942 c 65.1778,0.07147 64.7388,0.06611 70.2954007,0.856837 13.0356,1.854987 20.9311993,6.964363 44.1945993,28.598858 2.9043,2.700764 6.6759,6.201984 8.3816,7.780474 8.234601,7.62022 12.589201,10.8314 16.472001,12.14673 l 1.5964,0.54084 12.1235,0.0653 12.1232,0.0653 z"
         id="path331" /><path
         style="font-variation-settings:normal;opacity:0.5;fill:url(#linearGradient344);stroke:none;stroke-width:0.0199561;stroke-linecap:butt;stroke-linejoin:miter;stroke-miterlimit:4;stroke-dasharray:none;stroke-dashoffset:0;stroke-opacity:1;marker-end:url(#marker133-1)"
         d="m 85.564203,121.61509 v -1.09759 h -11.5829 c -12.8726,0 -13.3727,-0.0404 -16.1039,-1.3009 -3.9222,-1.81013 -7.5036,-4.68923 -18.125701,-14.57124 -11.4422,-10.644974 -14.607,-13.515504 -19.0448,-17.27352 C 7.8130027,76.453007 0.75580271,72.747226 -9.8259973,71.338907 -15.609598,70.569168 -15.776098,70.567152 -80.121398,70.48744 L -142.9333,70.40962 v 9.572496 9.57249 l 62.911702,0.0919 c 42.9058,0.0627 63.9587,0.16209 66.2044,0.312659 17.0726007,1.14469 23.4366007,3.72807 51.1875,20.779045 14.425501,8.86349 17.939701,10.68821 22.329101,11.5941 1.6605,0.34269 2.858,0.37535 13.8413,0.37775 l 12.0235,0.003 z"
         id="path332" /><path
         style="font-variation-settings:normal;opacity:0.5;fill:url(#linearGradient343);stroke:none;stroke-width:0.0199561;stroke-linecap:butt;stroke-linejoin:miter;stroke-miterlimit:4;stroke-dasharray:none;stroke-dashoffset:0;stroke-opacity:1;marker-end:url(#marker133-1)"
         d="m 85.564203,125.26266 v -0.88097 l -12.223,-0.0889 c -10.6062,-0.0771 -12.4181,-0.134 -13.6958,-0.42981 -4.3551,-1.00811 -8.2072,-2.94573 -18.923601,-9.51867 -15.2092,-9.32869 -19.9393,-12.09258 -25.9019,-15.135164 -10.8395993,-5.531131 -17.2445993,-7.17493 -30.3334,-7.7847 -2.5238,-0.117581 -28.6986,-0.19698 -65.8054,-0.19963 l -61.614402,-0.004 v 9.578944 9.57894 l 60.716402,0.003 c 34.0551,0.002 63.8448,0.0883 67.8404,0.19675 17.3716007,0.47159 23.3775007,1.61511 51.3476,9.77637 14.001301,4.08538 17.854801,5.05267 22.245901,5.58417 0.9865,0.11942 6.8269,0.20467 14.0192,0.20467 h 12.328 z"
         id="path333" /><path
         style="font-variation-settings:normal;opacity:0.5;fill:url(#linearGradient342);stroke:none;stroke-width:0.0199561;stroke-linecap:butt;stroke-linejoin:miter;stroke-miterlimit:4;stroke-dasharray:none;stroke-dashoffset:0;stroke-opacity:1;marker-end:url(#marker133-1)"
         d="m -13.218498,144.75722 c 3.5438007,-0.0854 9.5411007,-0.46258 12.37280071,-0.77822 9.10179999,-1.01455 16.86289929,-2.88641 39.97999929,-9.64262 9.377601,-2.74063 13.865701,-3.91696 17.693201,-4.63723 2.1726,-0.40886 2.9998,-0.43637 15.5159,-0.51616 l 13.2208,-0.0843 v -0.88413 -0.88412 l -10.9259,-0.006 c -11.2061,-0.006 -14.6115,-0.13938 -17.9774,-0.70423 -3.0825,-0.51728 -9.5722,-2.23488 -20.288401,-5.36972 -22.7837,-6.66488 -30.0276993,-8.27555 -41.9078993,-9.31796 -2.1207,-0.18608 -19.0098007,-0.26131 -70.0959007,-0.31224 l -67.302002,-0.0671 v 16.66924 16.66922 l 63.809802,-0.0421 c 35.0953,-0.0231 64.7526,-0.0648 65.905,-0.0925 z"
         id="path334" /><path
         style="font-variation-settings:normal;fill:url(#linearGradient341);stroke:none;stroke-width:0.0199561;stroke-linecap:butt;stroke-linejoin:miter;stroke-miterlimit:4;stroke-dasharray:none;stroke-dashoffset:0;stroke-opacity:1;marker-end:url(#marker133-1)"
         d="m -19.604498,165.50128 c 4.304,-0.0771 10.0491007,-0.45496 13.0713007,-0.85961 7.16900001,-0.95988 12.2468,-2.58415 19.9560993,-6.38356 6.131,-3.02153 11.0367,-5.84357 23.9474,-13.77587 14.957201,-9.1897 18.951501,-11.17677 23.642701,-11.7618 1.0104,-0.126 6.2919,-0.21089 13.1211,-0.21089 h 11.4301 v -0.9978 -0.99781 l -10.9259,0.002 c -6.0092,0.002 -12.1536,0.0903 -13.6542,0.19849 -4.4611,0.32169 -8.8375,1.29304 -18.425301,4.08955 -30.1348,8.78954 -34.9040993,9.88647 -48.2936993,11.10753 -1.9193,0.17503 -20.1067007,0.25529 -69.8964007,0.30843 l -67.302002,0.0719 v 9.67258 9.67259 l 60.317402,-0.0436 c 33.1745,-0.024 61.5296,-0.0653 63.0114,-0.0919 z"
         id="path335" /><path
         style="font-variation-settings:normal;opacity:0.5;fill:url(#linearGradient340);stroke:none;stroke-width:0.0199561;stroke-linecap:butt;stroke-linejoin:miter;stroke-miterlimit:4;stroke-dasharray:none;stroke-dashoffset:0;stroke-opacity:1;marker-end:url(#marker133-1)"
         d="m -22.996998,185.95416 c 6.5861,-0.1279 10.0067,-0.33191 13.4704007,-0.80344 9.86280001,-1.3427 17.0952,-5.05363 28.7366993,-14.74478 4.9051,-4.08318 9.0426,-7.81726 20.455,-18.4603 10.229901,-9.5401 14.366001,-12.87944 18.094001,-14.60846 2.8839,-1.33755 2.7163,-1.32265 15.8814,-1.41179 l 11.9237,-0.0807 v -1.09961 -1.09962 l -12.223,0.0864 c -10.635,0.0752 -12.4146,0.13092 -13.6958,0.42872 -4.5703,1.06213 -7.8565,2.77359 -22.098001,11.50848 -24.9617,15.31009 -32.2908993,18.66579 -44.1802993,20.22806 -5.8889007,0.77379 -5.8169007,0.77293 -71.8921007,0.84776 l -64.408302,0.0729 v 9.67205 9.67205 l 56.426002,-0.0351 c 31.0343,-0.0193 59.6139,-0.097 63.5103,-0.17268 z"
         id="path336" /><path
         style="font-variation-settings:normal;opacity:0.5;fill:url(#linearGradient339);stroke:none;stroke-width:0.0199561;stroke-linecap:butt;stroke-linejoin:miter;stroke-miterlimit:4;stroke-dasharray:none;stroke-dashoffset:0;stroke-opacity:1;marker-end:url(#marker133-1)"
         d="m -19.903898,206.55504 c 8.9497,-0.42458 14.3133007,-1.52148 19.35750071,-3.95875 4.49209999,-2.17049 8.32169999,-5.10928 13.77259929,-10.56857 6.0054,-6.0147 11.3875,-12.3111 24.1301,-28.2291 8.726001,-10.90034 10.037401,-12.48984 13.139001,-15.92512 4.7017,-5.20741 8.2017,-7.70795 11.5207,-8.23093 0.7704,-0.12137 5.8162,-0.20499 12.4227,-0.20588 l 11.1255,-0.002 v -1.00508 -1.00506 l -12.223,0.0571 -12.2232,0.0572 -1.6778,0.58564 c -4.0306,1.40681 -8.2509,4.64204 -18.462601,14.15303 -12.4645,11.60916 -16.7971,15.52571 -21.5678,19.4961 -12.4150993,10.33222 -19.55599929,13.79443 -31.0319,15.04542 -5.8231,0.63477 -12.955,0.70475 -72.0914,0.70732 l -59.219802,0.003 v 9.57895 9.57893 l 60.916102,-0.0377 c 33.5037,-0.0207 61.4549,-0.0633 62.1133,-0.0945 z"
         id="path337" /><path
         style="font-variation-settings:normal;fill:url(#linearGradient338);stroke:none;stroke-width:0.0199561;stroke-linecap:butt;stroke-linejoin:miter;stroke-miterlimit:4;stroke-dasharray:none;stroke-dashoffset:0;stroke-opacity:1;marker-end:url(#marker133-1)"
         d="m -22.498098,227.00036 c 14.6618007,-0.4958 21.2975007,-2.99898 29.3355007,-11.06622 6.6587993,-6.68307 14.1364993,-17.08885 28.0334993,-39.01095 11.752101,-18.53846 14.375201,-22.49901 17.785901,-26.85477 1.9894,-2.54051 5.1067,-5.58528 6.5764,-6.42331 2.1663,-1.23529 2.2946,-1.24601 14.8982,-1.24601 h 11.4328 v -0.89803 -0.89802 l -10.7264,0.006 c -5.8994,0.003 -11.3624,0.0889 -12.1399,0.18992 -3.7327,0.48521 -6.9479,2.67364 -11.8293,8.05147 -3.0942,3.40877 -5.1732,5.92737 -13.865601,16.79739 -12.0878,15.11595 -17.6278,21.58884 -23.5773,27.5476 -9.0866993,9.10089 -15.1798993,12.461 -25.1347,13.86065 -6.1244,0.8611 -6.0529,0.86013 -69.9091,0.94178 l -61.315202,0.0784 v 9.56811 9.56813 l 58.022302,-0.0319 c 31.9125,-0.0175 59.9982,-0.0987 62.4129,-0.18035 z"
         id="path338" /></g></g></svg>
