<?xml version="1.0" encoding="UTF-8" standalone="no"?>
<!-- Created with Inkscape (http://www.inkscape.org/) -->

<svg
   width="400"
   height="400"
   viewBox="0 0 105.83333 105.83333"
   version="1.1"
   id="svg1"
   xml:space="preserve"
   sodipodi:docname="participant-connect.svg"
   inkscape:export-filename="Prisma_Logo_Black_plain.svg"
   inkscape:export-xdpi="122.88"
   inkscape:export-ydpi="122.88"
   inkscape:version="1.4.3 (0d15f75, 2025-12-25)"
   xmlns:inkscape="http://www.inkscape.org/namespaces/inkscape"
   xmlns:sodipodi="http://sodipodi.sourceforge.net/DTD/sodipodi-0.dtd"
   xmlns:xlink="http://www.w3.org/1999/xlink"
   xmlns="http://www.w3.org/2000/svg"
   xmlns:svg="http://www.w3.org/2000/svg"><sodipodi:namedview
     id="namedview1"
     pagecolor="#ffffff"
     bordercolor="#666666"
     borderopacity="1.0"
     inkscape:showpageshadow="2"
     inkscape:pageopacity="0.0"
     inkscape:pagecheckerboard="0"
     inkscape:deskcolor="#d1d1d1"
     inkscape:document-units="mm"
     inkscape:zoom="1.1183102"
     inkscape:cx="153.80349"
     inkscape:cy="304.47725"
     inkscape:window-width="1920"
     inkscape:window-height="1051"
     inkscape:window-x="-9"
     inkscape:window-y="-9"
     inkscape:window-maximized="1"
     inkscape:current-layer="svg1"
     inkscape:export-bgcolor="#ffffffff" /><defs
     id="defs1"><linearGradient
       id="linearGradient4"
       inkscape:collect="always"><stop
         style="stop-color:#ffffff;stop-opacity:1;"
         offset="0.60000002"
         id="stop4" /><stop
         style="stop-color:#ffffff;stop-opacity:0;"
         offset="1"
         id="stop5" /></linearGradient><inkscape:path-effect
       effect="bspline"
       id="path-effect2"
       is_visible="true"
       lpeversion="1.3"
       weight="33.333333"
       steps="2"
       helper_size="0"
       apply_no_weight="true"
       apply_with_weight="true"
       only_selected="false"
       uniform="false" /><mask
       maskUnits="userSpaceOnUse"
       id="mask10"><g
         id="g11"><circle
           style="fill:#000000;stroke-width:0.569642"
           id="circle10"
           cx="39.592209"
           cy="39.312397"
           r="38.702576" /><circle
           style="fill:url(#radialGradient11);stroke-width:0.569642"
           id="circle11"
           cx="39.592209"
           cy="39.312397"
           r="38.702576" /></g></mask><radialGradient
       inkscape:collect="always"
       xlink:href="#linearGradient4"
       id="radialGradient11"
       gradientUnits="userSpaceOnUse"
       cx="39.592209"
       cy="39.312397"
       fx="39.592209"
       fy="39.312397"
       r="38.702576" /></defs><path
     d="M 59.5984,105.83331 94.704252,95.445365 A 216.99353,216.99353 0 0 0 91.17531,84.325877 216.99353,216.99353 0 0 0 85.739637,70.541616 216.99353,216.99353 0 0 0 79.375335,57.161097 216.99353,216.99353 0 0 0 72.11281,44.244885 216.99353,216.99353 0 0 0 63.987734,31.855563 216.99353,216.99353 0 0 0 55.034491,20.049968 216.99353,216.99353 0 0 0 45.296765,8.88306 216.99353,216.99353 0 0 0 36.413579,-2.814486e-7 L 11.12908,26.516552 a 180.36355,180.36355 0 0 1 7.796865,7.797158 180.36355,180.36355 0 0 1 8.798091,10.22307 180.36355,180.36355 0 0 1 8.009211,10.852253 180.36355,180.36355 0 0 1 7.175573,11.420821 180.36355,180.36355 0 0 1 6.303431,11.924966 180.36355,180.36355 0 0 1 5.394249,12.36281 180.36355,180.36355 0 0 1 4.45387,12.73048 180.36355,180.36355 0 0 1 0.537981,2.00522 z"
     style="fill:#000000;fill-opacity:1;stroke:none;stroke-width:3.5554;stroke-linecap:round"
     id="path15" /><ellipse
     style="fill:#ffffff;fill-opacity:1;stroke:none;stroke-width:1.02905"
     id="circle15"
     cx="74.143753"
     cy="83.538963"
     rx="9.1470003"
     ry="9.1466694" /></svg>
