<?xml version="1.0" encoding="UTF-8" standalone="no"?>
<!-- Created with Inkscape (http://www.inkscape.org/) -->

<svg
   width="400mm"
   height="400mm"
   viewBox="0 0 400 400"
   version="1.1"
   id="svg1"
   inkscape:version="1.3.2 (091e20e, 2023-11-25, custom)"
   sodipodi:docname="character.svg"
   inkscape:export-filename="character.png"
   inkscape:export-xdpi="100"
   inkscape:export-ydpi="100"
   xmlns:inkscape="http://www.inkscape.org/namespaces/inkscape"
   xmlns:sodipodi="http://sodipodi.sourceforge.net/DTD/sodipodi-0.dtd"
   xmlns="http://www.w3.org/2000/svg"
   xmlns:svg="http://www.w3.org/2000/svg">
  <sodipodi:namedview
     id="namedview1"
     pagecolor="#003a53"
     bordercolor="#666666"
     borderopacity="1.0"
     inkscape:showpageshadow="2"
     inkscape:pageopacity="0.0"
     inkscape:pagecheckerboard="0"
     inkscape:deskcolor="#d1d1d1"
     inkscape:document-units="mm"
     inkscape:zoom="0.38395763"
     inkscape:cx="652.41574"
     inkscape:cy="804.7763"
     inkscape:window-width="1920"
     inkscape:window-height="1051"
     inkscape:window-x="-9"
     inkscape:window-y="-9"
     inkscape:window-maximized="1"
     inkscape:current-layer="layer1"
     inkscape:export-bgcolor="#003a53ff" />
  <defs
     id="defs1" />
  <g
     inkscape:label="Layer 1"
     inkscape:groupmode="layer"
     id="layer1">
    <circle
       style="fill:none;stroke:#ffffff;stroke-width:0.600001;stroke-dasharray:1.2, 0.600001"
       id="path1"
       cx="328.00928"
       cy="108.87703"
       r="168.82831" />
    <circle
       style="fill:none;stroke:#ffffff;stroke-width:0.600001;stroke-dasharray:1.2, 0.600001"
       id="circle1"
       cx="86.825974"
       cy="183.29932"
       r="168.82831" />
    <circle
       style="fill:none;stroke:#ffffff;stroke-width:0.600001;stroke-dasharray:1.2, 0.600001"
       id="circle2"
       cx="282.52899"
       cy="326.63107"
       r="168.82831" />
    <path
       style="fill:#a4e4ff;fill-opacity:1;stroke:none;stroke-width:1.56267;stroke-dasharray:3.12534, 1.56267"
       d="m 234.17766,248.4526 c -18.65695,-13.02234 -32.66835,-26.82936 -44.43954,-43.79135 -2.23566,-3.22152 -4.9491,-7.37625 -6.02987,-9.23272 l -1.96504,-3.37542 1.63942,-1.26949 c 0.90167,-0.69821 3.81006,-2.70433 6.46308,-4.45804 2.65301,-1.7537 5.59889,-3.7176 6.5464,-4.36422 3.02682,-2.06563 21.49809,-10.82517 27.5638,-13.07144 10.37203,-3.84101 28.34125,-8.4721 29.26983,-7.54353 1.7543,1.7543 2.18522,31.03164 0.62231,42.28122 -1.20449,8.66973 -3.50194,20.31005 -4.89626,24.80742 -2.44148,7.87504 -5.29982,16.0406 -6.99517,19.98348 l -1.80697,4.20246 z"
       id="path2" />
    <path
       style="fill:#00577d;fill-opacity:1;stroke:none;stroke-width:1.56267;stroke-dasharray:3.12534, 1.56267"
       d="m 178.3375,185.88341 c -8.63012,-16.70305 -14.42072,-35.56752 -17.33699,-56.48001 -1.12137,-8.04125 -1.32304,-29.518145 -0.36099,-38.442845 1.01837,-9.447133 4.51884,-25.376261 7.51434,-34.194538 1.52917,-4.501647 2.87903,-8.494905 2.99969,-8.873908 0.12065,-0.378999 0.57711,-1.562036 1.01435,-2.628966 0.43723,-1.066929 0.80484,-2.152253 0.81689,-2.411833 0.0121,-0.259577 0.46676,-1.059627 1.01046,-1.777886 0.94503,-1.248426 1.24286,-1.133192 6.76428,2.617166 25.43833,17.278669 47.27251,42.970195 58.91311,69.32101 6.46374,14.63195 11.60789,31.54792 13.43862,44.19134 l 0.36215,2.50108 -5.89545,1.17082 c -11.65227,2.31412 -27.4383,7.7841 -39.61129,13.72561 -6.69987,3.27014 -20.84385,11.53318 -21.91099,12.80059 -0.66821,0.79361 -4.09495,2.78921 -4.7895,2.78921 -0.38688,0 -1.70479,-1.93808 -2.92868,-4.30684 z"
       id="path3" />
    <path
       style="fill:#00577d;fill-opacity:1;stroke:none;stroke-width:1.56267;stroke-dasharray:3.12534, 1.56267"
       d="m 310.09279,276.23306 c -15.68743,-2.04293 -28.17915,-5.01645 -40.6566,-9.67788 -7.13095,-2.66404 -21.33253,-9.28871 -25.29161,-11.79791 l -2.89602,-1.83545 1.63226,-3.69084 c 9.94376,-22.48461 15.08783,-54.30645 12.8147,-79.27333 -0.44379,-4.87439 -0.64926,-9.02015 -0.45661,-9.21281 0.80354,-0.80353 15.98981,-2.0865 25.97474,-2.19439 8.98504,-0.0971 24.9522,1.11199 30.62957,2.31936 16.69733,3.55089 23.14538,5.44422 34.74802,10.20295 30.9767,12.70487 56.57117,33.86215 76.7742,63.46423 3.01382,4.41593 5.25171,8.23384 5.25171,8.9595 0,0.17289 -2.7133,2.12636 -6.02956,4.34106 -3.31629,2.21469 -6.18657,4.18176 -6.37844,4.37126 -1.64576,1.6255 -20.32304,10.79651 -27.91717,13.70804 -19.98033,7.66029 -38.5268,11.00677 -60.62726,10.93941 -7.20103,-0.022 -15.10839,-0.30237 -17.57193,-0.6232 z"
       id="path4" />
    <path
       style="fill:#00577d;fill-opacity:1;stroke:none;stroke-width:1.56267;stroke-dasharray:3.12534, 1.56267"
       d="m 115.44601,347.39391 c -0.76875,-3.08867 -1.00657,-32.49785 -0.31278,-38.67931 1.0789,-9.6126 4.57376,-25.46135 7.54035,-34.19454 1.52918,-4.50164 2.87985,-8.49489 3.00149,-8.87388 0.73754,-2.29791 7.49622,-17.09822 8.65373,-18.95013 0.35533,-0.5685 2.10603,-3.51438 3.89044,-6.5464 2.96705,-5.04154 12.36518,-18.20191 16.25514,-22.76237 2.98681,-3.50163 16.80242,-17.18966 19.6891,-19.50728 1.57707,-1.26618 3.55001,-2.89417 4.38431,-3.61775 0.8343,-0.72359 1.70203,-1.31296 1.9283,-1.30972 0.22626,0.003 1.78627,2.25142 3.4667,4.99594 2.87913,4.70227 9.7633,14.43339 11.37168,16.07444 0.4032,0.41139 1.81842,2.10549 3.14492,3.76467 6.04584,7.56205 20.20555,21.07084 27.59194,26.32354 0.93203,0.6628 3.28865,2.37872 5.23693,3.81316 1.94827,1.43444 4.66031,3.21016 6.02676,3.94604 1.87975,1.01231 2.38501,1.65126 2.07589,2.6252 -1.41006,4.44273 -15.84336,27.83338 -20.10468,32.5817 -0.6532,0.72784 -2.41738,2.87062 -3.92041,4.7617 -7.22287,9.0877 -22.40723,22.6658 -34.1338,30.52302 -3.22152,2.15853 -6.01429,4.07964 -6.20616,4.26913 -1.64537,1.62513 -20.32252,10.79633 -27.91365,13.70669 -7.06956,2.71039 -18.01919,5.98519 -25.4189,7.60225 l -5.79613,1.26661 z"
       id="path5" />
    <text
       xml:space="preserve"
       style="font-size:19.0195px;line-height:0.85;font-family:'Bebas Neue';-inkscape-font-specification:'Bebas Neue';text-align:center;letter-spacing:0px;word-spacing:0px;text-anchor:middle;fill:#ffffff;fill-opacity:1;stroke-width:0.54864"
       x="315.60556"
       y="99.230789"
       id="text5"><tspan
         sodipodi:role="line"
         id="tspan5"
         style="fill:#ffffff;fill-opacity:1;stroke-width:0.54864"
         x="315.60556"
         y="99.230789">Facilitation</tspan></text>
    <text
       xml:space="preserve"
       style="font-size:19.0195px;line-height:0.85;font-family:'Bebas Neue';-inkscape-font-specification:'Bebas Neue';text-align:center;letter-spacing:0px;word-spacing:0px;text-anchor:middle;fill:#ffffff;fill-opacity:1;stroke-width:0.54864"
       x="281.15085"
       y="344.54865"
       id="text6"><tspan
         sodipodi:role="line"
         id="tspan6"
         style="fill:#ffffff;fill-opacity:1;stroke-width:0.54864"
         x="281.15085"
         y="344.54865">Innovation</tspan></text>
    <text
       xml:space="preserve"
       style="font-size:19.0195px;line-height:0.85;font-family:'Bebas Neue';-inkscape-font-specification:'Bebas Neue';text-align:center;letter-spacing:0px;word-spacing:0px;text-anchor:middle;fill:#ffffff;fill-opacity:1;stroke-width:0.54864"
       x="80.58474"
       y="188.12404"
       id="text7"><tspan
         sodipodi:role="line"
         id="tspan7"
         style="fill:#ffffff;fill-opacity:1;stroke-width:0.54864"
         x="80.58474"
         y="188.12404">Place-sourcING</tspan></text>
  </g>
</svg>
